<?xml version="1.0" encoding="utf-8"?>
<!-- Generator: Adobe Illustrator 25.2.1, SVG Export Plug-In . SVG Version: 6.00 Build 0)  -->
<svg version="1.1" id="Layer_1" xmlns="http://www.w3.org/2000/svg" xmlns:xlink="http://www.w3.org/1999/xlink" x="0px" y="0px"
	 viewBox="0 0 612 612" style="enable-background:new 0 0 612 612;" xml:space="preserve">
<style type="text/css">
	.st0{fill:url(#SVGID_1_);}
</style>
<g>
	<linearGradient id="SVGID_1_" gradientUnits="userSpaceOnUse" x1="72.9532" y1="206.0556" x2="536.8326" y2="595.2966">
		<stop  offset="0" style="stop-color:#1172BA"/>
		<stop  offset="0.1175" style="stop-color:#317DAD"/>
		<stop  offset="0.3641" style="stop-color:#559591"/>
		<stop  offset="0.5845" style="stop-color:#6EA876"/>
		<stop  offset="0.7705" style="stop-color:#7FB759"/>
		<stop  offset="0.9149" style="stop-color:#8AC145"/>
		<stop  offset="1" style="stop-color:#8DC63F"/>
	</linearGradient>
	<path class="st0" d="M261.18,441.49H27.03h-5.59v-5.59V269.96v-2.5l1.86-1.67l117.72-105.33l3.75-3.36l3.73,3.38l20.5,18.55v38.31
		l-24.34-22.02l-94.82,84.84v132.92h188.52V280.11l-22.38-20.25v-38.31l48.95,44.29l1.84,1.67v2.48V435.9v5.59H261.18z
		 M337.79,267.46v2.5v34.65h28.41v-24.44l94.82-84.84l93.7,84.79v132.97H366.2v-61.49h-28.41v84.3v5.59h5.59h234.15h5.59v-5.59
		V269.99v-2.48l-1.84-1.67L464.86,160.48l-3.73-3.38l-3.75,3.36L339.65,265.79L337.79,267.46z M64.51,504.78
		c-2.75-1.46-6.32-2.88-10.7-4.25c-0.16-0.04-0.31-0.07-0.47-0.09c-0.16-0.02-0.33-0.05-0.53-0.09c-0.2-0.12-0.39-0.2-0.58-0.26
		c-0.2-0.06-0.39-0.11-0.59-0.15c-3.32-0.98-5.93-1.88-7.82-2.7c-1.9-0.82-3.47-1.97-4.72-3.46c-1.25-1.49-1.88-3.4-1.88-5.74v-2.7
		c0-3.01,1.04-5.33,3.13-6.98c2.09-1.64,5.07-2.46,8.94-2.46c2.74,0,5.12,0.88,7.15,2.64c2.03,1.76,3.61,4.36,4.75,7.8l12.14-5.63
		c-1.06-3.87-2.64-7.13-4.75-9.79c-2.11-2.66-4.76-4.65-7.94-5.98c-3.18-1.33-6.83-1.99-10.93-1.99c-5.43,0-10.07,0.89-13.92,2.67
		c-3.85,1.78-6.79,4.39-8.82,7.83c-2.03,3.44-3.05,7.58-3.05,12.43v2.34c0,5.2,1.03,9.33,3.11,12.4c2.07,3.07,4.58,5.32,7.53,6.77
		c2.95,1.45,6.77,2.81,11.46,4.1l0.7,0.18c0.08,0.04,0.15,0.08,0.21,0.12c0.06,0.04,0.13,0.08,0.21,0.12
		c3.13,0.94,5.65,1.8,7.56,2.58c1.91,0.78,3.45,1.9,4.6,3.34c1.15,1.45,1.73,3.28,1.73,5.51v3.75c0,3.17-1.09,5.61-3.28,7.33
		c-2.19,1.72-5.25,2.58-9.2,2.58c-3.52,0-6.46-0.94-8.82-2.81c-2.37-1.88-4.1-4.65-5.19-8.32l-12.72,5.57
		c0.98,4.03,2.64,7.42,4.98,10.17c2.34,2.76,5.31,4.84,8.88,6.24c3.58,1.41,7.71,2.11,12.4,2.11c5.59,0,10.35-0.89,14.27-2.67
		c3.93-1.78,6.92-4.39,9-7.83c2.07-3.44,3.11-7.58,3.11-12.43v-3.81c0-4.88-0.97-8.81-2.9-11.78
		C69.61,508.47,67.27,506.25,64.51,504.78z M118.83,517.18l-18.17-53.34H86.53v85.23h12.54v-55.88l15.12,43.27h9.26l15.24-44.72
		v57.33h12.43v-85.23h-13.95L118.83,517.18z M195.5,463.84l26.03,85.23H207.4l-4.36-16.06h-25.28l-4.36,16.06h-14.13l26.03-85.23
		H195.5z M199.6,520.35l-9.2-33.88l-9.2,33.88H199.6z M268.48,511.83l16.35,37.24h-15.36l-14.79-35.64h-10.47v35.64h-13.37v-85.29
		h5.86h7.5h14.65c4.69,0,8.75,0.89,12.19,2.67c3.44,1.78,6.1,4.34,7.97,7.68c1.88,3.34,2.81,7.28,2.81,11.81v4.98
		c0,4.61-0.94,8.61-2.81,11.99c-1.88,3.38-4.54,5.98-8,7.8C270.21,511.13,269.36,511.51,268.48,511.83z M244.21,500.59h14.95
		c1.76,0,3.31-0.38,4.66-1.14c1.35-0.76,2.38-1.86,3.08-3.28c0.7-1.43,1.07-3.14,1.11-5.13v-4.63c0-1.95-0.35-3.67-1.06-5.16
		c-0.7-1.49-1.73-2.63-3.08-3.43c-1.35-0.8-2.92-1.2-4.72-1.2h-14.95V500.59z M288.29,476.68h19.17v72.39h13.31v-72.39H340v-12.84
		h-51.7V476.68z M389.59,523.72l-27.67-59.88h-12.9v85.17h12.78v-58.26l27.49,58.26h13.07v-85.17h-12.78V523.72z M423.82,463.84
		h-5.98v85.23h5.98h7.44h33.18v-12.9h-33.18v-23.04h28.49v-12.78h-28.49v-23.62h33.18v-12.9h-33.18H423.82z M516.06,504.78
		c-2.75-1.46-6.32-2.88-10.7-4.25c-0.16-0.04-0.31-0.07-0.47-0.09c-0.16-0.02-0.33-0.05-0.53-0.09c-0.2-0.12-0.39-0.2-0.58-0.26
		c-0.2-0.06-0.39-0.11-0.59-0.15c-3.32-0.98-5.93-1.88-7.82-2.7c-1.9-0.82-3.47-1.97-4.72-3.46c-1.25-1.49-1.88-3.4-1.88-5.74v-2.7
		c0-3.01,1.04-5.33,3.13-6.98c2.09-1.64,5.07-2.46,8.94-2.46c2.74,0,5.12,0.88,7.15,2.64c2.03,1.76,3.61,4.36,4.75,7.8l12.14-5.63
		c-1.06-3.87-2.64-7.13-4.75-9.79c-2.11-2.66-4.76-4.65-7.94-5.98c-3.18-1.33-6.83-1.99-10.93-1.99c-5.43,0-10.07,0.89-13.92,2.67
		c-3.85,1.78-6.79,4.39-8.82,7.83c-2.03,3.44-3.05,7.58-3.05,12.43v2.34c0,5.2,1.03,9.33,3.11,12.4c2.07,3.07,4.58,5.32,7.53,6.77
		c2.95,1.45,6.77,2.81,11.46,4.1l0.7,0.18c0.08,0.04,0.15,0.08,0.21,0.12c0.06,0.04,0.13,0.08,0.21,0.12
		c3.13,0.94,5.65,1.8,7.56,2.58c1.91,0.78,3.45,1.9,4.6,3.34c1.15,1.45,1.73,3.28,1.73,5.51v3.75c0,3.17-1.09,5.61-3.28,7.33
		c-2.19,1.72-5.25,2.58-9.2,2.58c-3.52,0-6.46-0.94-8.82-2.81c-2.37-1.88-4.1-4.65-5.19-8.32l-12.72,5.57
		c0.98,4.03,2.64,7.42,4.98,10.17c2.34,2.76,5.31,4.84,8.88,6.24c3.58,1.41,7.71,2.11,12.4,2.11c5.59,0,10.35-0.89,14.27-2.67
		c3.93-1.78,6.92-4.39,9-7.83c2.07-3.44,3.11-7.58,3.11-12.43v-3.81c0-4.88-0.97-8.81-2.9-11.78
		C521.16,508.47,518.81,506.25,516.06,504.78z M583.59,511.44c-1.93-2.97-4.28-5.19-7.03-6.65c-2.75-1.46-6.32-2.88-10.7-4.25
		c-0.16-0.04-0.31-0.07-0.47-0.09c-0.16-0.02-0.33-0.05-0.53-0.09c-0.2-0.12-0.39-0.2-0.58-0.26c-0.2-0.06-0.39-0.11-0.59-0.15
		c-3.32-0.98-5.93-1.88-7.82-2.7c-1.9-0.82-3.47-1.97-4.72-3.46c-1.25-1.49-1.88-3.4-1.88-5.74v-2.7c0-3.01,1.04-5.33,3.13-6.98
		c2.09-1.64,5.07-2.46,8.94-2.46c2.74,0,5.12,0.88,7.15,2.64c2.03,1.76,3.61,4.36,4.75,7.8l12.14-5.63
		c-1.06-3.87-2.64-7.13-4.75-9.79c-2.11-2.66-4.76-4.65-7.94-5.98c-3.18-1.33-6.83-1.99-10.93-1.99c-5.43,0-10.07,0.89-13.92,2.67
		c-3.85,1.78-6.79,4.39-8.82,7.83c-2.03,3.44-3.05,7.58-3.05,12.43v2.34c0,5.2,1.03,9.33,3.11,12.4c2.07,3.07,4.58,5.32,7.53,6.77
		c2.95,1.45,6.77,2.81,11.46,4.1l0.7,0.18c0.08,0.04,0.15,0.08,0.21,0.12c0.06,0.04,0.13,0.08,0.21,0.12
		c3.13,0.94,5.65,1.8,7.56,2.58s3.45,1.9,4.6,3.34c1.15,1.45,1.73,3.28,1.73,5.51v3.75c0,3.17-1.09,5.61-3.28,7.33
		c-2.19,1.72-5.26,2.58-9.2,2.58c-3.52,0-6.46-0.94-8.82-2.81c-2.37-1.88-4.1-4.65-5.19-8.32l-12.72,5.57
		c0.98,4.03,2.64,7.42,4.98,10.17c2.34,2.76,5.31,4.84,8.88,6.24c3.58,1.41,7.71,2.11,12.4,2.11c5.59,0,10.35-0.89,14.27-2.67
		c3.93-1.78,6.92-4.39,9-7.83c2.07-3.44,3.11-7.58,3.11-12.43v-3.81C586.49,518.33,585.52,514.41,583.59,511.44z M226.56,343.9
		v-28.41h-18.54V182.57l94.82-84.84l93.7,84.79v18.97l28.41-25.42v-3.67v-2.48l-1.84-1.67L306.68,62.89l-3.73-3.38l-3.75,3.36
		L181.48,168.19l-1.86,1.67v2.5V338.3v5.59h5.59H226.56z M424.95,343.9v-5.59v-96.8l-28.41,25.42v48.57H278.28v28.41h141.07H424.95z
		"/>
</g>
</svg>
