<?xml version="1.0" encoding="UTF-8" standalone="no"?>
<svg
   version="1.1"
   id="svg4"
   sodipodi:docname="smartness-logo.svg"
   viewBox="0 0 293 256"
   inkscape:version="1.1.2 (0a00cf5339, 2022-02-04)"
   xmlns:inkscape="http://www.inkscape.org/namespaces/inkscape"
   xmlns:sodipodi="http://sodipodi.sourceforge.net/DTD/sodipodi-0.dtd"
   xmlns="http://www.w3.org/2000/svg"
   xmlns:svg="http://www.w3.org/2000/svg">
  <defs
     id="defs8" />
  <sodipodi:namedview
     id="namedview6"
     pagecolor="#ffffff"
     bordercolor="#666666"
     borderopacity="1.0"
     inkscape:pageshadow="2"
     inkscape:pageopacity="0.0"
     inkscape:pagecheckerboard="0"
     showgrid="false"
     inkscape:zoom="3.296875"
     inkscape:cx="146.50237"
     inkscape:cy="128.15166"
     inkscape:window-width="1850"
     inkscape:window-height="1016"
     inkscape:window-x="70"
     inkscape:window-y="27"
     inkscape:window-maximized="1"
     inkscape:current-layer="svg4" />
  <path
     fill="currentColor"
     d="M286.118 211.072c3.062 2.375 3.125 1.125 4.062 4.375v4l-6 2-1-2c-2.946-4.553-5.582-3.794-10-2-.539 4.708-.539 4.708 1.438 8.75 2.34 1.142 4.516 1.872 7 2.625 4.35 1.422 6.994 2.648 9.562 6.625.76 4.9.595 9.319-1.062 14-3.583 3.698-7.278 4.72-12.313 5.25-4.568-.498-8.069-1.628-11.384-4.522-1.363-2.37-1.457-4.063-1.241-6.728l6-2c.514 6.314 7.654 6.043 12 4 1.469-3.149.725-5.572 0-8l-3.176-1.137-4.136-1.55-2.092-.741c-3.395-1.295-5.247-2.133-7.553-5.033-2.005-4.881-1.524-9.056.121-13.899 4.696-6.731 12.733-7.463 19.774-4.015ZM88.79 223.145h2c1.326 4.901 2.309 9.636 3 15h-8c.551-5.239 1.429-9.974 3-15Zm29-7 4.312-.188 2.887.105c2.262.293 1.801.083 3.574 1.407 3.727 5.994.948 11.15-5.898 10.863l-4.875-.187Zm22-6h27v6h-10v37h-7v-37h-10v-6Zm67 0h23v6h-16v12h14v7h-14v11h17v7h-24v-43Zm-182.688.125c3.209 2.239 4.25 4.282 5.688 7.875-4.75 3-4.75 3-7 3l-1-3c-2.79-1.394-4.921-1.257-8-1-2.238 2.75-2.238 2.75-1.985 5.531.776 2.705.776 2.705 3.531 3.875l3.204 1.094c8.83 3.437 8.83 3.437 11.25 7.5.827 5.457.967 10.208-1.688 15.125-4.474 3.628-8.436 4.322-14.094 4.199-3.464-.506-5.597-2.087-8.218-4.324-2-3-2-3-2-7l6-2 1.562 2.5c2.29 2.883 2.29 2.883 6.125 2.875 3.154-.009 3.154-.009 4.313-1.375a59.25 59.25 0 0 0 .062-4.063l-.062-3.937-2.704-.918-3.546-1.27-3.516-1.23c-3.607-1.764-5.164-3.163-7.234-6.582-.92-4.36-1.031-8.974 1.023-13.012 4.81-6.02 11.432-6.192 18.29-3.863Zm232.625.5c3.063 2.375 3.125 1.125 4.063 4.375v4l-6 2-1-2c-2.947-4.553-5.582-3.795-10-2-.539 4.708-.539 4.708 1.437 8.75 2.34 1.142 4.517 1.872 7 2.625 4.351 1.421 6.994 2.648 9.563 6.625.76 4.899.595 9.319-1.063 14-3.582 3.697-7.277 4.72-12.312 5.25-4.568-.498-8.07-1.628-11.385-4.522-1.363-2.37-1.457-4.063-1.24-6.728l6-2c.514 6.314 7.653 6.043 12 4 1.469-3.149.725-5.572 0-8l-3.176-1.137-4.137-1.551-2.092-.74c-3.395-1.296-5.247-2.134-7.552-5.033-2.005-4.881-1.524-9.056.12-13.899 4.696-6.731 12.733-7.463 19.774-4.015Zm-169.937-.625h6c3.256 9.563 6.418 19.152 9.375 28.812 1.298 5.986 2.575 10.193 2.625 14.188h-7l-1-8h-14l-2 7c-.563 3.562-.184-.013-.184.987 0-1 .184.013-6.816.013 1.578-7.933 3.986-15.506 6.5-23.188l1.222-3.771a1941.74 1941.74 0 0 1 5.278-16.041Zm84-1h7c1.234 2.414 2.462 4.831 3.687 7.25l1.029 2.008c3.11 6.161 5.605 12.313 8.284 18.742l1-28h7v44h-7l-13-26-1 26h-7v-44Zm-60 0c18 0 18 0 24 4 3.119 4.679 2.845 9.53 2 15-1.637 2.854-3.575 4.819-6 7l1.531 3.43 1.969 4.445 1.011 2.262.957 2.168.889 1.999c.643 1.696.643 1.696.643 3.696h-8c-1.409-5.118-3.04-18.928-7-18-3.074-.1-2.751-.085-5.933-.1l-.067 18.1h-6Zm-74 0h7c3.45 8.191 6.252 16.555 9 25 3.45-8.191 6.252-16.555 9-25h8v44h-7l-1-23-6 17h-5a1099.58 1099.58 0 0 1-1.813-4.438l-1.02-2.496c-1.514-3.976-2.822-8.029-4.167-12.066l-1 25h-6v-44Zm173.024-112.95-.024 51.95h-75v-15h61v-25c3.208-2.991 1.964-2.018 8.842-7.693 3.106-2.563 3.153-2.578 5.182-4.257ZM146.79 2.145c4.644 2.786 8.168 6.06 11.941 9.934 2.512 2.52 5.163 4.832 7.859 7.152 2.603 2.265 5.151 4.587 7.7 6.914a639.802 639.802 0 0 0 11.472 10.223l24.734 25.267-9.99 8.331-48.11-43.52c-1.202-1.1-3.788-2.634-4.99-3.735l-8.277 7.309a7304.155 7304.155 0 0 0-10.679 9.715 560.167 560.167 0 0 1-8.633 7.633c-3.144 2.756-6.241 5.564-9.34 8.37-2.687 2.407-2.687 2.407-4.665 3.626-3.754 2.573-5.733 4.515-6.766 9.037-.28 4.12-.314 8.176-.257 12.303-.007 1.514-.018 3.029-.032 4.543a819.6 819.6 0 0 0 .02 11.9c.021 4.057-.003 8.112-.023 12.168-.032 7.944-.014 15.886.035 23.83h10.001v15h-25c-.181-11.614-.328-23.226-.415-34.841-.042-5.394-.098-10.786-.189-16.179-.087-5.207-.135-10.412-.156-15.62a413.058 413.058 0 0 0-.086-5.952c-.326-15.567-1.065-13.129 1.839-17.69 2.016-1.784 4.642-5.456 7.007-6.718 1.838-1.66 3.672-3.327 5.5-5a632.638 632.638 0 0 1 11.406-10.156c2.558-2.253 5.075-4.547 7.594-6.844a637.409 637.409 0 0 1 11.468-10.219 633.644 633.644 0 0 0 7.094-6.344A510.58 510.58 0 0 1 146.79 2.145Zm-81 50c1.233.89 2.46 1.787 3.687 2.687l2.074 1.512 2.239 1.8 4.82 4.57c.522 4.997.411 7.064.492 10.743l-.068 2.823c-.059 2.29-.141 4.576-.245 6.865l-1.41-1.23-1.875-1.622-1.848-1.604c-2.503-2.07-5.125-3.805-7.867-5.544-35.54 29.865 0 0-23.083 19.625-24.942 23.679-16.897 14.246-24.942 23.679-.452 3.927-.146 10.215-.072 14.352a667.089 667.089 0 0 1-.032 4.026c-.027 4.94.025 9.879.067 14.818l.063 33.5h96l.125-33.938.117-10.667c-.013-3.19-.013-3.19-.039-6.379-.005-1.407.009-2.814.038-4.221.346-16.745-9.11-20.989-11.494-22.381-.026-3.334.042-2.104-.143-10.045l-.093-3.055c-.002-2.083-.029-4.317-.054-6.527 4.959 4.723 27.247 19.594 27.188 22.33.223 2.346.063 6.451.149 8.826l.003 2.705c-.067 2.848-.058 5.75-.113 8.625-.011 1.781-.018 3.562-.022 5.343-.037 6.587.108 13.209.017 19.795l.048 44.512-126.727.077-.955-44.7.234-13.908c.008-5.745-.234 13.908 0 0-.732-10.523-1.144-28.27.535-30.833l13.686-12.56c3.119-2.844 6.247-5.671 9.437-8.437 3.41-2.961 6.74-6.004 10.062-9.062a537.48 537.48 0 0 1 12-10.75c2.4-2.1 4.762-4.236 7.125-6.375 3.56-3.214 7.16-6.344 10.876-9.375Zm162 0c3.006 1.34 4.997 2.798 7.25 5.187 3.02 3.11 6.167 5.968 9.449 8.797 2.808 2.46 5.555 4.986 8.301 7.516 3.278 3.02 6.565 6.022 9.937 8.937 3.547 3.075 6.994 6.249 10.438 9.438 4.09 3.786 8.184 7.567 12.312 11.312 6.216 5.717 0 0 6.288 5.823l.025 88.99h-126v-46h14v31h97l1.022-43.503.463-22.053c-7.32-7.527-21.859-21.175-30.562-28.043-19.585-15.456-19.591-15.449-19.591-15.449-20.344 17.31-14.57 12.327-20.344 17.31-5.793 5.151-12.079 10.962-17.301 15.55l-9.624 8.47-.134 12.375-16.13.331.01-21.844 12.341-9.214 7.693-6.024c2.929-2.589 5.79-5.248 8.657-7.906 4.105-3.807 8.241-7.563 12.476-11.227 2.539-2.225 5.03-4.498 7.524-6.773 3.971-3.623 7.977-7.2 12.039-10.723a50.583 50.583 0 0 0 2.461-2.277Z"
     id="path2" />
</svg>
